Coordinates
nRows=18
nColumns=34

# SIMM Motion File Header:
name Coordinates
datacolumns 34
datarows 18
otherdata 1
range 0.15000000 0.16700000

Units are S.I. units (second, meters, Newtons, ...)
Angles are in degrees.

endheader
time	pelvis_tz	pelvis_tx	pelvis_ty	pelvis_tilt	pelvis_list	pelvis_rotation	hip_flexion_r	hip_adduction_r	hip_rotation_r	knee_r_tx	knee_r_ty	knee_angle_r	tib_pat_r_tx	tib_pat_r_ty	tib_pat_r_r1	ankle_angle_r	subtalar_angle_r	mtp_angle_r	hip_flexion_l	hip_adduction_l	hip_rotation_l	knee_l_tx	knee_l_ty	knee_angle_l	tib_pat_l_tx	tib_pat_l_ty	tib_pat_l_r1	ankle_angle_l	subtalar_angle_l	mtp_angle_l	lumbar_extension	lumbar_bending	lumbar_rotation
      0.15000000	     -0.26463439	     -0.00164147	      0.91387142	     -2.84318106	     -2.06434089	     -0.86191583	     15.63632130	      4.03001009	     13.21667598	     -0.00326068	     -0.41392830	     -9.87047497	      0.04530027	     -0.02086885	      9.05559196	      0.23580582	      0.00000000	      0.00000000	     -3.71573465	      2.34821232	      6.17009997	      0.00272845	     -0.41922787	    -44.02465000	      0.03936485	     -0.01959731	     16.75358329	    -16.81554620	      0.00000000	      0.00000000	      0.13785584	      7.93585997	     -3.42075766
      0.15100000	     -0.26457140	     -0.00058226	      0.91401658	     -2.84011807	     -2.06158950	     -0.86485325	     15.54196739	      4.03038030	     13.22688066	     -0.00326622	     -0.41392572	     -9.84180606	      0.04530468	     -0.02087023	      9.03679098	      0.29432432	      0.00000000	     -0.00000000	     -3.54792567	      2.32695960	      6.10475897	      0.00276236	     -0.41928959	    -44.29786657	      0.03930510	     -0.01958789	     16.77100991	    -16.73398871	      0.00000000	     -0.00000000	      0.12739142	      7.92921072	     -3.38337293
      0.15200000	     -0.26450835	      0.00047690	      0.91416172	     -2.83705523	     -2.05881606	     -0.86779778	     15.44761532	      4.03073528	     13.23708998	     -0.00327175	     -0.41392313	     -9.81312751	      0.04530910	     -0.02087161	      9.01794449	      0.35311528	      0.00000000	     -0.00000000	     -3.38012007	      2.30572374	      6.03942709	      0.00279610	     -0.41935154	    -44.57100719	      0.03924523	     -0.01957851	     16.78817054	    -16.65237278	      0.00000000	     -0.00000000	      0.11692804	      7.92252786	     -3.34597867
      0.15300000	     -0.26444523	      0.00153599	      0.91430684	     -2.83399078	     -2.05600761	     -0.87076439	     15.35327598	      4.03105711	     13.24733612	     -0.00327728	     -0.41392055	     -9.78445400	      0.04531352	     -0.02087299	      8.99906207	      0.41175240	      0.00000000	     -0.00000000	     -3.21232714	      2.28451937	      5.97410903	      0.00282965	     -0.41941372	    -44.84400699	      0.03918525	     -0.01956916	     16.80506344	    -16.57066486	      0.00000000	     -0.00000000	      0.10646252	      7.91579517	     -3.30855715
      0.15400000	     -0.26438199	      0.00259497	      0.91445192	     -2.83092280	     -2.05314620	     -0.87376226	     15.25895217	      4.03132997	     13.25763401	     -0.00328279	     -0.41391796	     -9.75578406	      0.04531794	     -0.02087438	      8.98014272	      0.47024785	     -0.00000000	     -0.00000000	     -3.04455447	      2.26336202	      5.90881300	      0.00286300	     -0.41947611	    -45.11679520	      0.03912518	     -0.01955984	     16.82168670	    -16.48881782	      0.00000000	     -0.00000000	      0.09599304	      7.90898655	     -3.27109669
      0.15500000	     -0.26431860	      0.00365381	      0.91459696	     -2.82784939	     -2.05021372	     -0.87680035	     15.16464643	      4.03153817	     13.26799796	     -0.00328830	     -0.41391538	     -9.72711560	      0.04532237	     -0.02087576	      8.96118502	      0.52863036	      0.00000000	     -0.00000000	     -2.87680953	      2.24226727	      5.84354729	      0.00289613	     -0.41953869	    -45.38930090	      0.03906503	     -0.01955057	     16.83803871	    -16.40678412	      0.00000000	     -0.00000000	      0.08551784	      7.90207556	     -3.23358589
      0.15600000	     -0.26425501	      0.00471248	      0.91474194	     -2.82476869	     -2.04719208	     -0.87988765	     15.07036136	      4.03166604	     13.27844237	     -0.00329379	     -0.41391280	     -9.69844659	      0.04532681	     -0.02087715	      8.94218759	      0.58692728	      0.00000000	     -0.00000000	     -2.70909974	      2.22125066	      5.77832011	      0.00292904	     -0.41960144	    -45.66145326	      0.03900482	     -0.01954134	     16.85411808	    -16.32451648	      0.00000000	     -0.00000000	      0.07503517	      7.89503582	     -3.19601336
      0.15700000	     -0.26419119	      0.00577093	      0.91488685	     -2.82167885	     -2.04406327	     -0.88303313	     14.97609961	      4.03169794	     13.28898174	     -0.00329928	     -0.41391022	     -9.66977509	      0.04533124	     -0.02087855	      8.92314908	      0.64516394	      0.00000000	     -0.00000000	     -2.54143249	      2.20032771	      5.71313960	      0.00296170	     -0.41966435	    -45.93318162	      0.03894456	     -0.01953216	     16.86992370	    -16.24196796	      0.00000000	      0.00000000	      0.06454334	      7.88784111	     -3.15836773
      0.15800000	     -0.26412708	      0.00682914	      0.91503168	     -2.81857808	     -2.04080937	     -0.88624579	     14.88186388	      4.03161828	     13.29963058	     -0.00330476	     -0.41390765	     -9.64109924	      0.04533569	     -0.02087994	      8.90406819	      0.70336377	      0.00000000	     -0.00000000	     -2.37381518	      2.17951388	      5.64801378	      0.00299411	     -0.41972738	    -46.20441548	      0.03888428	     -0.01952301	     16.88545468	    -16.15909198	      0.00000000	      0.00000000	      0.05404064	      7.88046530	     -3.12063770
      0.15900000	     -0.26406267	      0.00788707	      0.91517641	     -2.81546466	     -2.03741256	     -0.88953470	     14.78765709	      4.03141147	     13.31040355	     -0.00331023	     -0.41390507	     -9.61241743	      0.04534013	     -0.02088134	      8.88494378	      0.76154415	      0.00000000	     -0.00000000	     -2.20625506	      2.15882459	      5.58295053	      0.00302626	     -0.41979053	    -46.47508457	      0.03882398	     -0.01951392	     16.90071039	    -16.07584249	      0.00000000	      0.00000000	      0.04352545	      7.87288252	     -3.08281196
      0.16000000	     -0.26399790	      0.00894468	      0.91532104	     -2.81233712	     -2.03385517	     -0.89290915	     14.69348282	      4.03106184	     13.32131563	     -0.00331570	     -0.41390250	     -9.58372875	      0.04534459	     -0.02088274	      8.86577517	      0.81970771	      0.00000000	     -0.00000000	     -2.03875913	      2.13827518	      5.51795742	      0.00305813	     -0.41985377	    -46.74511885	      0.03876370	     -0.01950487	     16.91569045	    -15.99217400	      0.00000000	      0.00000000	      0.03299635	      7.86506718	     -3.04487902
      0.16100000	     -0.26393273	      0.01000195	      0.91546555	     -2.80919411	     -2.03011968	     -0.89637854	     14.59934495	      4.03055374	     13.33238184	     -0.00332115	     -0.41389992	     -9.55503263	      0.04534904	     -0.02088414	      8.84656190	      0.87784884	      0.00000000	     -0.00000000	     -1.87133420	      2.11788095	      5.45304186	      0.00308972	     -0.41991709	    -47.01444860	      0.03870343	     -0.01949588	     16.93039469	    -15.90804167	      0.00000000	      0.00000000	      0.02245202	      7.85699401	     -3.00682737
      0.16200000	     -0.26386714	      0.01105883	      0.91560992	     -2.80603430	     -2.02618873	     -0.89995212	     14.50524728	      4.02987160	     13.34361701	     -0.00332660	     -0.41389735	     -9.52632849	      0.04535350	     -0.02088555	      8.82730350	      0.93596203	      0.00000000	     -0.00000000	     -1.70398714	      2.09765704	      5.38821118	      0.00312101	     -0.41998046	    -47.28300437	      0.03864321	     -0.01948693	     16.94482318	    -15.82340123	      0.00000000	      0.00000000	      0.01189111	      7.84863792	     -2.96864574
      0.16300000	     -0.26380108	      0.01211530	      0.91575416	     -2.80285631	     -2.02204507	     -0.90363903	     14.41119351	      4.02899997	     13.35503573	     -0.00333205	     -0.41389478	     -9.49761569	      0.04535797	     -0.02088696	      8.80799945	      0.99404217	      0.00000000	     -0.00000000	     -1.53672482	      2.07761850	      5.32347271	      0.00315198	     -0.42004387	    -47.55071703	      0.03858304	     -0.01947804	     16.95897620	    -15.73820912	      0.00000000	      0.00000000	      0.00131228	      7.83997405	     -2.93032306
      0.16400000	     -0.26373451	      0.01317132	      0.91589824	     -2.79965875	     -2.01767162	     -0.90744825	     14.31718727	      4.02792350	     13.36665236	     -0.00333748	     -0.41389220	     -9.46889358	      0.04536244	     -0.02088837	      8.78864923	      1.05208451	      0.00000000	     -0.00000000	     -1.36955416	      2.05778024	      5.25883369	      0.00318264	     -0.42010729	    -47.81751783	      0.03852294	     -0.01946921	     16.97285426	    -15.65242244	      0.00000000	      0.00000000	     -0.00928580	      7.83097779	     -2.89184852
      0.16500000	     -0.26366740	      0.01422685	      0.91604216	     -2.79644022	     -2.01305149	     -0.91138864	     14.22323207	      4.02662697	     13.37848099	     -0.00334291	     -0.41388963	     -9.44016145	      0.04536691	     -0.02088978	      8.76925227	      1.11008462	      0.00000000	     -0.00000000	     -1.20248209	      2.03815703	      5.19430132	      0.00321297	     -0.42017071	    -48.08333835	      0.03846294	     -0.01946043	     16.98645806	    -15.56599910	      0.00000000	      0.00000000	     -0.01990451	      7.82162479	     -2.85321157
      0.16600000	     -0.26359971	      0.01528187	      0.91618590	     -2.79319931	     -2.00816795	     -0.91546888	     14.12933132	      4.02509528	     13.39053545	     -0.00334833	     -0.41388706	     -9.41141858	      0.04537140	     -0.02089120	      8.74980799	      1.16803842	      0.00000000	     -0.00000000	     -1.03551559	      2.01876349	      5.12988277	      0.00324296	     -0.42023410	    -48.34811063	      0.03840304	     -0.01945171	     16.99978851	    -15.47889780	      0.00000000	      0.00000000	     -0.03054520	      7.81189096	     -2.81440190
      0.16700000	     -0.26353141	      0.01633634	      0.91632946	     -2.78993456	     -2.00300446	     -0.91969750	     14.03548833	      4.02331349	     13.40282926	     -0.00335375	     -0.41388449	     -9.38266419	      0.04537588	     -0.02089261	      8.73031577	      1.22594240	      0.00000000	     -0.00000000	     -0.86866167	      1.99961407	      5.06558511	      0.00327260	     -0.42029744	    -48.61176709	      0.03834327	     -0.01944305	     17.01284670	    -15.39107814	      0.00000000	      0.00000000	     -0.04120926	      7.80175254	     -2.77540953
